<svg width="70" height="100" viewBox="0 0 70 100" fill="none" xmlns="http://www.w3.org/2000/svg">
<g clip-path="url(#clip0)">
<path d="M17.3753 100C26.9632 100 34.7447 92.5337 34.7447 83.3337V66.667H17.3753C7.78735 66.667 0.00585938 74.1337 0.00585938 83.3337C0.00585938 92.5337 7.78735 100 17.3753 100Z" fill="#0ACF83"/>
<path d="M0.00585938 49.9997C0.00585938 40.7997 7.78735 33.333 17.3753 33.333H34.7447V66.6664H17.3753C7.78735 66.6664 0.00585938 59.1997 0.00585938 49.9997Z" fill="#A259FF"/>
<path d="M0.00390625 16.6667C0.00390625 7.46667 7.7854 0 17.3733 0H34.7427V33.3333H17.3733C7.7854 33.3333 0.00390625 25.8667 0.00390625 16.6667Z" fill="#F24E1E"/>
<path d="M34.7461 0H52.1155C61.7034 0 69.4849 7.46667 69.4849 16.6667C69.4849 25.8667 61.7034 33.3333 52.1155 33.3333H34.7461V0Z" fill="#FF7262"/>
<path d="M69.4849 49.9997C69.4849 59.1997 61.7034 66.6664 52.1155 66.6664C42.5276 66.6664 34.7461 59.1997 34.7461 49.9997C34.7461 40.7997 42.5276 33.333 52.1155 33.333C61.7034 33.333 69.4849 40.7997 69.4849 49.9997Z" fill="#1ABCFE"/>
</g>
<defs>
<clipPath id="clip0">
<rect width="69.4915" height="100" fill="white"/>
</clipPath>
</defs>
</svg>
