<svg width="31" height="27" viewBox="0 0 31 27" fill="none" xmlns="http://www.w3.org/2000/svg">
<path d="M0 1.90141C0 0.851289 0.85129 0 1.90141 0H29.0986C30.1487 0 31 0.851289 31 1.90141C31 2.95153 30.1487 3.80282 29.0986 3.80282H1.90141C0.851291 3.80282 0 2.95153 0 1.90141Z" fill="white"/>
<path d="M0.09375 13.5474C0.09375 12.4973 0.94504 11.646 1.99516 11.646H29.0986C30.1487 11.646 31 12.4973 31 13.5474C31 14.5975 30.1487 15.4488 29.0986 15.4488H1.99516C0.94504 15.4488 0.09375 14.5975 0.09375 13.5474Z" fill="white"/>
<path d="M0.09375 25.0984C0.09375 24.0483 0.94504 23.197 1.99516 23.197H29.0986C30.1487 23.197 31 24.0483 31 25.0984C31 26.1485 30.1487 26.9998 29.0986 26.9998H1.99516C0.94504 26.9998 0.09375 26.1485 0.09375 25.0984Z" fill="white"/>
</svg>
